<?xml version="1.0" encoding="UTF-8"?><svg xmlns="http://www.w3.org/2000/svg" xmlns:xlink="http://www.w3.org/1999/xlink" width="375" zoomAndPan="magnify" viewBox="0 0 375 374.999991" height="374.999991" preserveAspectRatio="xMidYMid meet" version="1.0"><defs><clipPath id="clip-0"><path d="M 24 52.796875 L 356.554688 52.796875 L 356.554688 323.542969 L 24 323.542969 Z M 24 52.796875 " clip-rule="nonzero"/></clipPath><clipPath id="clip-1"><path d="M 19 51.472656 L 346.5 51.472656 L 346.5 318.472656 L 19 318.472656 Z M 19 51.472656 " clip-rule="nonzero"/></clipPath></defs><rect x="-37.5" width="450" fill="rgb(100%, 100%, 100%)" y="-37.499999" height="449.999989" fill-opacity="1"/><rect x="-37.5" width="450" fill="rgb(96.859741%, 95.289612%, 100%)" y="-37.499999" height="449.999989" fill-opacity="1"/><g clip-path="url(#clip-0)"><path fill="rgb(32.159424%, 44.309998%, 100%)" d="M 248.628906 267.542969 C 264.117188 267.542969 276.664062 280.089844 276.664062 295.550781 C 276.664062 311.019531 264.117188 323.558594 248.628906 323.558594 C 233.152344 323.558594 220.601562 311.019531 220.601562 295.550781 C 220.601562 280.089844 233.152344 267.542969 248.628906 267.542969 Z M 356.417969 67.84375 C 356.511719 68.550781 356.539062 69.082031 356.492188 69.785156 C 356.441406 70.160156 356.425781 70.53125 356.339844 70.910156 C 356.25 71.316406 356.164062 71.71875 356.054688 72.121094 C 355.761719 73.148438 355.480469 74.203125 355.15625 75.222656 C 354.078125 78.644531 353.027344 82.28125 351.804688 85.636719 C 348.113281 96.394531 344.234375 106.90625 339.976562 117.460938 C 335.175781 129.121094 330.257812 140.109375 323.96875 151.066406 C 321.277344 155.683594 318.625 159.800781 315.183594 163.902344 C 312.171875 167.425781 309.378906 170.140625 305.042969 171.972656 C 297.261719 174.441406 288.332031 174.984375 280.210938 175.429688 C 226.546875 176.613281 168.453125 171.035156 117.910156 173.191406 C 115.71875 172.882812 114.027344 172.585938 112.792969 172.308594 C 92.832031 167.785156 191.234375 167.273438 191.535156 167.273438 C 214.066406 166.992188 280.050781 167.117188 299.847656 159.367188 C 301.457031 158.457031 303.078125 156.511719 304.21875 155.089844 C 306.894531 151.550781 309.003906 147.917969 311.09375 144.023438 C 315.3125 135.855469 317.746094 130.605469 321.050781 122.171875 C 286.835938 122.050781 255.746094 123.421875 221.6875 124.632812 C 193.652344 125.628906 164.066406 125.910156 146.398438 123.652344 C 145.425781 123.566406 144.171875 123.277344 143.246094 122.902344 C 141.773438 122.253906 140.84375 121.53125 139.96875 120.316406 C 139.617188 119.484375 139.652344 118.839844 139.953125 118.320312 C 140.738281 116.960938 143.285156 116.476562 145.121094 115.746094 C 158.835938 111.402344 176.429688 110.394531 191.339844 109.972656 C 208.09375 109.746094 322.332031 115.25 326.21875 108.515625 C 330.042969 98.15625 332.332031 91.066406 335.554688 80.5 C 335.746094 79.847656 335.929688 79.167969 336.132812 78.5 C 317.59375 79.039062 299.011719 79.441406 280.484375 79.644531 C 271.953125 79.71875 155.304688 80.878906 138.191406 71.960938 C 136.832031 71.253906 136.097656 70.476562 136.097656 69.636719 C 137.070312 67.582031 142.5 66.589844 144.453125 66.179688 C 193.527344 58.496094 295.316406 60.847656 347.917969 60.71875 C 349.71875 60.710938 351.085938 61.097656 352.621094 62.027344 C 353.773438 62.792969 354.523438 63.546875 355.261719 64.707031 C 355.894531 65.773438 356.222656 66.632812 356.417969 67.84375 Z M 138.792969 211.152344 C 160.105469 215.539062 251.238281 214.609375 280.53125 216.039062 C 288.859375 216.582031 295.871094 217.789062 303.347656 221.640625 C 306.335938 223.273438 308.535156 224.851562 310.777344 227.429688 C 312.929688 230.054688 314.0625 232.371094 314.519531 235.746094 C 314.804688 239.1875 314.15625 241.726562 312.441406 244.707031 C 310.558594 247.632812 308.550781 249.441406 305.6875 251.378906 C 303.269531 252.894531 301.039062 253.941406 298.378906 254.972656 C 292.75 257.058594 287.640625 258.164062 281.714844 259.0625 C 226.972656 262.964844 183.957031 256.527344 131.445312 255.15625 C 127.855469 254.578125 125.101562 254.046875 123.101562 253.578125 C 95.144531 247.011719 213.25 250.914062 219.3125 250.816406 C 239.84375 250.441406 259.222656 249.636719 279.417969 245.6875 C 285.429688 244.492188 292.164062 242.851562 297.21875 239.226562 C 297.691406 238.878906 298.40625 238.308594 298.890625 237.734375 C 298.078125 236.992188 297.128906 236.46875 296.140625 235.988281 C 290.984375 233.742188 285.585938 233.210938 280.023438 233.0625 C 245.195312 232.695312 164.226562 236.832031 133.921875 232.441406 C 121.066406 229.304688 112.75 225.273438 103.84375 215.378906 C 97.277344 207.25 93.648438 200.265625 89.886719 190.714844 C 87.589844 184.855469 85.40625 178.519531 83.652344 172.480469 C 76.363281 147.191406 70.554688 121 64.496094 95.371094 C 62.714844 87.949219 60.714844 81.941406 56.757812 75.402344 C 53.875 71.324219 51.171875 68.449219 46.8125 65.980469 C 45.046875 65.125 43.5625 64.609375 41.636719 64.257812 C 39.789062 63.992188 38.335938 63.980469 36.492188 64.253906 C 34.582031 64.609375 33.183594 65.101562 31.457031 65.980469 C 30.628906 66.433594 29.714844 67.1875 28.765625 67.84375 C 27.519531 68.703125 26.210938 69.398438 24.9375 69.058594 C 23.617188 67.011719 25.75 63.007812 26.839844 61.304688 C 28.59375 58.859375 30.390625 57.328125 32.984375 55.804688 C 33.363281 55.589844 33.734375 55.390625 34.128906 55.199219 C 36.5625 54.039062 38.625 53.480469 41.308594 53.152344 C 44.699219 52.785156 47.355469 53.015625 50.679688 53.804688 C 58.40625 55.8125 63.515625 59.550781 68.902344 65.34375 C 75.695312 72.992188 79.199219 80.511719 82.367188 90.1875 C 90.191406 115.3125 97.183594 140.617188 104.96875 165.703125 C 108.75 177.460938 113.007812 191.003906 120.738281 200.832031 C 126.128906 206.980469 130.949219 209.101562 138.792969 211.152344 Z M 157.941406 267.542969 C 173.421875 267.542969 185.972656 280.089844 185.972656 295.550781 C 185.972656 311.019531 173.421875 323.558594 157.941406 323.558594 C 142.457031 323.558594 129.90625 311.019531 129.90625 295.550781 C 129.90625 280.089844 142.457031 267.542969 157.941406 267.542969 " fill-opacity="1" fill-rule="evenodd"/></g><g clip-path="url(#clip-1)"><path fill="rgb(20.779419%, 4.309082%, 53.729248%)" d="M 240.277344 263.246094 C 255.519531 263.246094 267.871094 275.617188 267.871094 290.867188 C 267.871094 306.121094 255.519531 318.484375 240.277344 318.484375 C 225.042969 318.484375 212.691406 306.121094 212.691406 290.867188 C 212.691406 275.617188 225.042969 263.246094 240.277344 263.246094 Z M 346.367188 66.3125 C 346.457031 67.007812 346.484375 67.535156 346.4375 68.226562 C 346.386719 68.597656 346.371094 68.964844 346.285156 69.335938 C 346.199219 69.738281 346.117188 70.136719 346.007812 70.53125 C 345.71875 71.546875 345.441406 72.582031 345.121094 73.589844 C 344.0625 76.964844 343.027344 80.550781 341.824219 83.859375 C 338.1875 94.46875 334.371094 104.832031 330.183594 115.242188 C 325.457031 126.742188 320.617188 137.578125 314.429688 148.382812 C 311.777344 152.9375 309.167969 156.996094 305.78125 161.042969 C 302.816406 164.515625 300.070312 167.195312 295.800781 169 C 288.140625 171.433594 279.351562 171.96875 271.359375 172.410156 C 218.542969 173.574219 161.367188 168.074219 111.621094 170.203125 C 109.460938 169.898438 107.800781 169.605469 106.582031 169.332031 C 86.9375 164.871094 183.785156 164.363281 184.082031 164.363281 C 206.257812 164.089844 271.203125 164.210938 290.6875 156.566406 C 292.273438 155.671875 293.867188 153.753906 294.988281 152.351562 C 297.625 148.859375 299.699219 145.277344 301.757812 141.4375 C 305.910156 133.382812 308.300781 128.207031 311.554688 119.886719 C 277.882812 119.769531 247.28125 121.125 213.761719 122.3125 C 186.167969 123.296875 157.046875 123.574219 139.660156 121.351562 C 138.703125 121.261719 137.46875 120.976562 136.558594 120.609375 C 135.105469 119.96875 134.195312 119.257812 133.332031 118.058594 C 132.984375 117.238281 133.019531 116.601562 133.316406 116.089844 C 134.085938 114.75 136.59375 114.273438 138.402344 113.550781 C 151.898438 109.269531 169.214844 108.273438 183.890625 107.859375 C 200.378906 107.632812 312.816406 113.0625 316.640625 106.421875 C 320.402344 96.207031 322.660156 89.214844 325.828125 78.796875 C 326.019531 78.148438 326.199219 77.484375 326.402344 76.824219 C 308.152344 77.355469 289.863281 77.75 271.628906 77.949219 C 263.230469 78.023438 148.425781 79.167969 131.582031 70.371094 C 130.242188 69.675781 129.519531 68.910156 129.519531 68.082031 C 130.476562 66.054688 135.824219 65.078125 137.746094 64.671875 C 186.042969 57.097656 286.226562 59.414062 337.996094 59.289062 C 339.769531 59.28125 341.117188 59.660156 342.625 60.578125 C 343.761719 61.332031 344.5 62.074219 345.226562 63.21875 C 345.847656 64.273438 346.171875 65.121094 346.367188 66.3125 Z M 132.175781 207.636719 C 153.152344 211.964844 242.84375 211.042969 271.675781 212.457031 C 279.871094 212.992188 286.773438 214.179688 294.132812 217.980469 C 297.070312 219.589844 299.238281 221.148438 301.445312 223.691406 C 303.5625 226.277344 304.679688 228.5625 305.128906 231.890625 C 305.410156 235.285156 304.769531 237.789062 303.082031 240.726562 C 301.230469 243.613281 299.253906 245.394531 296.433594 247.308594 C 294.054688 248.800781 291.859375 249.835938 289.238281 250.851562 C 283.699219 252.90625 278.671875 253.996094 272.839844 254.882812 C 218.960938 258.730469 176.625 252.386719 124.941406 251.03125 C 121.410156 250.460938 118.699219 249.9375 116.730469 249.476562 C 89.214844 242.996094 205.453125 246.847656 211.421875 246.753906 C 231.628906 246.382812 250.703125 245.589844 270.582031 241.695312 C 276.496094 240.515625 283.125 238.898438 288.101562 235.324219 C 288.5625 234.976562 289.269531 234.414062 289.746094 233.851562 C 288.945312 233.121094 288.007812 232.601562 287.035156 232.128906 C 281.960938 229.914062 276.652344 229.390625 271.175781 229.242188 C 236.898438 228.878906 157.203125 232.960938 127.378906 228.628906 C 114.726562 225.539062 106.542969 221.5625 97.777344 211.804688 C 91.3125 203.789062 87.742188 196.902344 84.039062 187.484375 C 81.777344 181.707031 79.628906 175.457031 77.902344 169.5 C 70.730469 144.5625 65.011719 118.734375 59.046875 93.457031 C 57.296875 86.140625 55.328125 80.214844 51.433594 73.769531 C 48.59375 69.746094 45.9375 66.910156 41.644531 64.472656 C 39.90625 63.632812 38.445312 63.125 36.550781 62.777344 C 34.734375 62.515625 33.300781 62.503906 31.488281 62.773438 C 29.605469 63.121094 28.230469 63.609375 26.535156 64.476562 C 25.714844 64.925781 24.816406 65.664062 23.882812 66.3125 C 22.65625 67.160156 21.367188 67.847656 20.117188 67.511719 C 18.816406 65.492188 20.914062 61.546875 21.988281 59.867188 C 23.710938 57.453125 25.484375 55.941406 28.035156 54.441406 C 28.40625 54.230469 28.773438 54.035156 29.160156 53.84375 C 31.558594 52.699219 33.585938 52.148438 36.230469 51.824219 C 39.566406 51.464844 42.179688 51.691406 45.453125 52.46875 C 53.054688 54.449219 58.082031 58.132812 63.386719 63.847656 C 70.074219 71.390625 73.519531 78.804688 76.640625 88.347656 C 84.339844 113.125 91.21875 138.078125 98.882812 162.816406 C 102.605469 174.414062 106.796875 187.765625 114.402344 197.460938 C 119.710938 203.523438 124.453125 205.613281 132.175781 207.636719 Z M 151.019531 263.246094 C 166.257812 263.246094 178.609375 275.617188 178.609375 290.867188 C 178.609375 306.121094 166.257812 318.484375 151.019531 318.484375 C 135.78125 318.484375 123.429688 306.121094 123.429688 290.867188 C 123.429688 275.617188 135.78125 263.246094 151.019531 263.246094 " fill-opacity="1" fill-rule="evenodd"/></g></svg>